<svg width="40" height="48" viewBox="0 0 40 48" fill="none" xmlns="http://www.w3.org/2000/svg">
<rect width="4" height="41" transform="matrix(1 0 -4.84523e-06 1 17.9293 0.772949)" fill="#BABABA"/>
<rect width="4" height="41" transform="matrix(1 0 -4.84523e-06 1 17.9293 0.772949)" fill="#BABABA"/>
<path d="M36.5103 23.61L38.9984 26.3733L20.4361 45.7925L17.8641 43.1133L36.5103 23.61Z" fill="#BABABA"/>
<path d="M36.5103 23.61L38.9984 26.3733L20.4361 45.7925L17.8641 43.1133L36.5103 23.61Z" fill="#BABABA"/>
<path d="M0.959348 27.6435L3.4751 24.9548L22.1389 44.4322L19.6234 47.1267L0.959348 27.6435Z" fill="#BABABA"/>
<path d="M0.959348 27.6435L3.4751 24.9548L22.1389 44.4322L19.6234 47.1267L0.959348 27.6435Z" fill="#BABABA"/>
</svg>
