<svg width="18" height="18" viewBox="0 0 18 18" fill="none" xmlns="http://www.w3.org/2000/svg">
<path d="M16 6.42588V3.57412C16 2.45176 15.5482 2 14.4259 2H11.5741C10.4518 2 10 2.45176 10 3.57412V6.42588C10 7.54824 10.4518 8 11.5741 8H14.4259C15.5482 8 16 7.54824 16 6.42588Z" stroke="#292D32" stroke-width="1.11957" stroke-linecap="round" stroke-linejoin="round"/>
<path d="M8 6.6077V3.39927C8 2.40282 7.54824 2 6.42588 2H3.57412C2.45176 2 2 2.40282 2 3.39927V6.60064C2 7.60416 2.45176 7.99991 3.57412 7.99991H6.42588C7.54824 8.00698 8 7.60416 8 6.6077Z" stroke="#292D32" stroke-width="1.11957" stroke-linecap="round" stroke-linejoin="round"/>
<path d="M8 14.4259V11.5741C8 10.4518 7.54824 10 6.42588 10H3.57412C2.45176 10 2 10.4518 2 11.5741V14.4259C2 15.5482 2.45176 16 3.57412 16H6.42588C7.54824 16 8 15.5482 8 14.4259Z" stroke="#292D32" stroke-width="1.11957" stroke-linecap="round" stroke-linejoin="round"/>
<path d="M11 13H16" stroke="#292D32" stroke-width="1.11957" stroke-linecap="round"/>
<path d="M13 16V11" stroke="#292D32" stroke-width="1.11957" stroke-linecap="round"/>
</svg>
