<svg width="25" height="24" viewBox="0 0 25 24" fill="none" xmlns="http://www.w3.org/2000/svg">
<path d="M8.14844 7H17.6484V5C17.6484 3 16.8984 2 14.6484 2H11.1484C8.89844 2 8.14844 3 8.14844 5V7Z" stroke="#292D32" stroke-width="1.5" stroke-miterlimit="10" stroke-linecap="round" stroke-linejoin="round"/>
<path d="M16.8984 15V19C16.8984 21 15.8984 22 13.8984 22H11.8984C9.89844 22 8.89844 21 8.89844 19V15H16.8984Z" stroke="#292D32" stroke-width="1.5" stroke-miterlimit="10" stroke-linecap="round" stroke-linejoin="round"/>
<path d="M21.8984 10V15C21.8984 17 20.8984 18 18.8984 18H16.8984V15H8.89844V18H6.89844C4.89844 18 3.89844 17 3.89844 15V10C3.89844 8 4.89844 7 6.89844 7H18.8984C20.8984 7 21.8984 8 21.8984 10Z" stroke="#292D32" stroke-width="1.5" stroke-miterlimit="10" stroke-linecap="round" stroke-linejoin="round"/>
<path d="M17.8984 15H16.6884H7.89844" stroke="#292D32" stroke-width="1.5" stroke-miterlimit="10" stroke-linecap="round" stroke-linejoin="round"/>
<path d="M7.89844 11H10.8984" stroke="#292D32" stroke-width="1.5" stroke-miterlimit="10" stroke-linecap="round" stroke-linejoin="round"/>
</svg>
