<svg width="18" height="18" viewBox="0 0 18 18" fill="none" xmlns="http://www.w3.org/2000/svg">
<path d="M8 12C8 10.7927 8 9.81818 10.4 9.81818H13.6C16 9.81818 16 9.09091 16 7.63636V6.18182C16 4.72727 16 4 13.6 4H12.8" stroke="#292D32" stroke-width="1.14062" stroke-linecap="round" stroke-linejoin="round"/>
<path d="M9.60804 2H6.39196C5.86935 3.625 5.86935 5.375 6.39196 7H9.60804C10.1307 5.375 10.1307 3.625 9.60804 2Z" stroke="#292D32" stroke-width="1.14062" stroke-linecap="round" stroke-linejoin="round"/>
<path d="M6 2H5.25C3.75 2 3 2.83333 3 4.5C3 6.16667 3.75 7 5.25 7H6C5.25 5.33333 5.25 3.66667 6 2Z" stroke="#292D32" stroke-width="1.14062" stroke-linecap="round" stroke-linejoin="round"/>
<path d="M9.75 2H9C9.75 3.66667 9.75 5.33333 9 7H9.75C11.25 7 12 6.16667 12 4.5C12 2.83333 11.25 2 9.75 2Z" stroke="#292D32" stroke-width="1.14062" stroke-linecap="round" stroke-linejoin="round"/>
<path d="M7.125 17H7.875C9 17 9 16.1667 9 15.75V13.25C9 12.8333 9 12 7.875 12H7.125C6 12 6 12.8333 6 13.25V15.75C6 16.1667 6 17 7.125 17Z" stroke="#292D32" stroke-width="1.14062" stroke-linecap="round" stroke-linejoin="round"/>
</svg>
