<svg width="15" height="15" viewBox="0 0 15 15" fill="none" xmlns="http://www.w3.org/2000/svg">
<path d="M7.49999 0C8.98335 0 10.4334 0.439866 11.6668 1.26398C12.9001 2.08809 13.8614 3.25943 14.4291 4.62988C14.9968 6.00032 15.1453 7.50832 14.8559 8.96318C14.5665 10.418 13.8522 11.7544 12.8033 12.8033C11.7544 13.8522 10.418 14.5665 8.96318 14.8559C7.50832 15.1453 6.00032 14.9968 4.62988 14.4291C3.25943 13.8614 2.08809 12.9001 1.26398 11.6668C0.439866 10.4334 0 8.98335 0 7.49999C0.00169686 5.51139 0.792429 3.60474 2.19858 2.19858C3.60474 0.792429 5.51139 0.00169686 7.49999 0ZM7.49999 13.9024C8.76609 13.9024 10.0037 13.527 11.0565 12.8236C12.1092 12.1202 12.9297 11.1204 13.4142 9.95067C13.8987 8.78095 14.0255 7.49382 13.7785 6.25205C13.5315 5.01028 12.9218 3.86964 12.0266 2.97437C11.1313 2.07911 9.99065 1.46944 8.74888 1.22243C7.50711 0.975431 6.21998 1.10218 5.05026 1.5867C3.88054 2.07121 2.88076 2.89171 2.17735 3.94443C1.47395 4.99715 1.09851 6.23482 1.09851 7.50091C1.10021 9.19817 1.77518 10.8254 2.97532 12.0256C4.17547 13.2257 5.80273 13.9007 7.49999 13.9024Z" fill="#9C9D9E"/>
<path d="M11.3865 8.99998H11.3764L7.59922 8.94177C7.43937 8.93927 7.28697 8.87785 7.17487 8.77075C7.06278 8.66365 6.99998 8.51948 7 8.36928V4.57252C7 4.42068 7.06419 4.27504 7.17847 4.16767C7.29275 4.0603 7.44777 4 7.60939 4C7.77101 4 7.926 4.0603 8.04028 4.16767C8.15456 4.27504 8.21874 4.42068 8.21874 4.57252V7.80627L11.3957 7.85496C11.5573 7.85623 11.7117 7.91775 11.8251 8.02601C11.9384 8.13427 12.0013 8.28039 12 8.43223C11.9986 8.58407 11.9331 8.72921 11.8179 8.83569C11.7027 8.94216 11.5471 9.00125 11.3855 8.99998H11.3865Z" fill="#9C9D9E"/>
</svg>
