<svg width="45" height="29" viewBox="0 0 45 29" fill="none" xmlns="http://www.w3.org/2000/svg">
<path d="M21.6167 29H9.5L11.3834 26H23.5L21.6167 29Z" fill="white"/>
<path d="M42.7466 23.4077H42.9477C43.1942 23.4077 43.3176 23.3325 43.3176 23.1824C43.3176 23.0377 43.1942 22.9652 42.9477 22.9652H42.7466V23.4077ZM42.3767 22.6677H42.9638C43.4516 22.6677 43.6956 22.8284 43.6956 23.1502C43.6956 23.3433 43.5962 23.4748 43.3981 23.5442C43.4998 23.5818 43.5695 23.6395 43.6071 23.7172C43.6445 23.7951 43.6661 23.9196 43.6715 24.0914C43.6715 24.1716 43.6848 24.2468 43.7117 24.3163H43.3417C43.3203 24.2523 43.3095 24.177 43.3095 24.0914C43.3042 23.925 43.2775 23.818 43.2292 23.7695C43.1809 23.7214 43.079 23.697 42.9234 23.697H42.7466V24.3163H42.3767V22.6677ZM43.8724 22.6193C43.6313 22.3781 43.339 22.2574 42.9959 22.2574C42.6528 22.2574 42.3606 22.3781 42.1193 22.6193C41.8781 22.8605 41.7575 23.1529 41.7575 23.4961C41.7575 23.8393 41.8781 24.1329 42.1193 24.3768C42.3606 24.6208 42.6528 24.7428 42.9959 24.7428C43.339 24.7428 43.6313 24.6208 43.8724 24.3768C44.1139 24.1329 44.2345 23.8393 44.2345 23.4961C44.2345 23.1529 44.1139 22.8605 43.8724 22.6193ZM41.9384 22.4385C42.2305 22.1462 42.5831 22 42.9959 22C43.4088 22 43.7626 22.1462 44.0574 22.4385C44.3524 22.7306 44.4999 23.0831 44.4999 23.4961C44.5051 23.9091 44.3591 24.2628 44.0615 24.5579C43.7639 24.8526 43.4088 25 42.9959 25C42.5831 25 42.2305 24.8526 41.9384 24.5579C41.646 24.2628 41.5 23.9091 41.5 23.4961C41.5 23.0831 41.646 22.7306 41.9384 22.4385Z" fill="white"/>
<path d="M34.3661 25H23.5L33.6339 3H44.5L34.3661 25Z" fill="white"/>
<path d="M11.3661 25H0.5L10.6339 3H21.5L11.3661 25Z" fill="white"/>
<path d="M33.6167 3H21.5L23.3834 0H35.5L33.6167 3Z" fill="white"/>
</svg>
