<?xml version="1.0" encoding="utf-8"?><svg viewBox="0 0 40 48" xmlns="http://www.w3.org/2000/svg" xmlns:xlink="http://www.w3.org/1999/xlink"><style>:root>svg{display:none}:root>svg:target{display:block}</style><svg viewBox="0 0 40 48" id="arrow" xmlns="http://www.w3.org/2000/svg"><path d="M17.93.773h4v41h-4z"/><path d="M17.93.773h4v41h-4z"/><path d="M36.51 23.61l2.488 2.763-18.562 19.42-2.572-2.68L36.51 23.61z"/><path d="M36.51 23.61l2.488 2.763-18.562 19.42-2.572-2.68L36.51 23.61z"/><path d="M.96 27.643l2.515-2.688L22.14 44.432l-2.516 2.695L.96 27.643z"/><path d="M.96 27.643l2.515-2.688L22.14 44.432l-2.516 2.695L.96 27.643z"/></svg><svg viewBox="0 0 18 18" id="phone" xmlns="http://www.w3.org/2000/svg"><g clip-path="url(#ba)"><path d="M13.865 17.72c-.168 0-.336-.019-.5-.055a16.955 16.955 0 01-8.31-4.375 16.355 16.355 0 01-4.5-8.125 2.29 2.29 0 01.675-2.14l2-1.925A1 1 0 014 .83a1 1 0 01.725.435l2.5 3.695a.8.8 0 01-.055.95l-1.255 1.5A9.47 9.47 0 008 10.355a9.63 9.63 0 003.035 2.045l1.555-1.235a.82.82 0 01.93-.06l3.775 2.44A1 1 0 0117.5 15.1l-1.95 1.93a2.37 2.37 0 01-1.685.69zM3.92 1.82l-2 1.925a1.27 1.27 0 00-.375 1.2 15.35 15.35 0 004.205 7.63 15.95 15.95 0 007.82 4.115 1.375 1.375 0 001.25-.37l1.95-1.93-3.645-2.355-1.67 1.33a.5.5 0 01-.46.085 10.03 10.03 0 01-3.68-2.375 9.745 9.745 0 01-2.435-3.6A.5.5 0 015 7l1.35-1.615L3.92 1.82z"/></g><defs><clipPath id="ba"><path d="M0 0h18v18H0z"/></clipPath></defs></svg><svg viewBox="0 0 17 14" id="tg" xmlns="http://www.w3.org/2000/svg"><path fill-rule="evenodd" clip-rule="evenodd" d="M1.169 6.027c4.563-1.976 7.606-3.278 9.129-3.908C14.645.323 15.548.01 16.137 0c.13-.002.419.03.607.181.158.128.201.3.222.421.021.121.047.397.026.613-.235 2.46-1.255 8.428-1.773 11.183-.22 1.166-.652 1.557-1.07 1.595-.909.083-1.6-.597-2.48-1.17-1.377-.898-2.156-1.457-3.493-2.332-1.546-1.012-.544-1.569.337-2.478.23-.238 4.236-3.858 4.313-4.186.01-.041.02-.195-.072-.275-.092-.081-.227-.054-.324-.032-.139.032-2.34 1.477-6.603 4.337-.625.427-1.191.634-1.698.623-.559-.012-1.634-.314-2.433-.572-.98-.316-1.76-.484-1.692-1.022.035-.28.424-.566 1.165-.86z"/></svg><svg viewBox="0 0 22 14" id="vk" xmlns="http://www.w3.org/2000/svg"><path d="M11.982 14C4.466 14 .18 8.745 0 0h3.765c.124 6.418 2.9 9.137 5.098 9.698V0h3.546v5.536C14.579 5.297 16.86 2.775 17.63 0h3.545c-.59 3.42-3.064 5.942-4.823 6.979C18.111 7.819 20.928 10.02 22 14h-3.903c-.838-2.663-2.926-4.723-5.688-5.003V14h-.427z"/></svg><svg viewBox="0 0 21 21" id="wa" xmlns="http://www.w3.org/2000/svg"><path fill-rule="evenodd" clip-rule="evenodd" d="M18.086 3.907a9.896 9.896 0 00-3.23-2.156A9.934 9.934 0 0011.043 1c-5.488 0-9.957 4.446-9.959 9.91a9.86 9.86 0 001.33 4.955L1 21l5.279-1.379a10 10 0 004.759 1.207h.004c5.488 0 9.956-4.446 9.958-9.91a9.816 9.816 0 00-2.914-7.011zm-7.044 15.248h-.003a8.29 8.29 0 01-4.213-1.149l-.302-.179-3.132.818.835-3.04-.197-.31a8.194 8.194 0 01-1.265-4.384c.002-4.542 3.715-8.237 8.28-8.237a8.257 8.257 0 015.852 2.415 8.158 8.158 0 012.422 5.828c-.003 4.542-3.716 8.238-8.277 8.238zm4.54-6.17c-.25-.125-1.472-.723-1.7-.806-.228-.083-.393-.124-.56.124-.166.247-.643.804-.788.97-.145.166-.29.186-.539.062-.248-.124-1.05-.385-2.001-1.229-.74-.657-1.24-1.467-1.384-1.715-.146-.249-.016-.382.11-.506.111-.11.248-.29.372-.434.124-.145.165-.247.249-.413.083-.165.042-.31-.022-.434-.062-.124-.56-1.343-.767-1.839-.2-.48-.406-.416-.56-.423-.158-.006-.316-.01-.475-.009a.92.92 0 00-.665.31c-.228.248-.87.846-.87 2.065 0 1.219.892 2.397 1.016 2.563.124.165 1.755 2.666 4.25 3.739.595.255 1.059.407 1.42.522.595.189 1.137.161 1.567.098.478-.07 1.472-.598 1.679-1.177.207-.578.207-1.074.145-1.178-.062-.103-.23-.166-.477-.29z"/></svg><svg viewBox="0 0 27 27" id="yt" xmlns="http://www.w3.org/2000/svg"><path d="M23.573 9.201a2.48 2.48 0 00-.678-1.117 2.663 2.663 0 00-1.171-.647C20.081 7.007 13.507 7 13.507 7s-6.572-.007-8.216.404c-.443.12-.846.346-1.17.657-.325.311-.56.697-.683 1.12C3.004 10.744 3 13.99 3 13.99s-.004 3.261.426 4.81c.241.856.95 1.533 1.85 1.763 1.66.43 8.215.437 8.215.437s6.574.007 8.217-.403a2.672 2.672 0 001.173-.646 2.49 2.49 0 00.681-1.115c.435-1.564.438-4.808.438-4.808s.02-3.262-.427-4.827zm-12.168 7.795l.005-5.994 5.463 3.002-5.468 2.992z"/></svg></svg>