<?xml version="1.0" encoding="utf-8"?><svg viewBox="0 0 47 48" xmlns="http://www.w3.org/2000/svg" xmlns:xlink="http://www.w3.org/1999/xlink"><style>:root>svg{display:none}:root>svg:target{display:block}</style><svg viewBox="0 0 40 48" id="arrow" xmlns="http://www.w3.org/2000/svg"><path d="M17.93.773h4v41h-4z"/><path d="M17.93.773h4v41h-4z"/><path d="M36.51 23.61l2.488 2.763-18.562 19.42-2.572-2.68L36.51 23.61z"/><path d="M36.51 23.61l2.488 2.763-18.562 19.42-2.572-2.68L36.51 23.61z"/><path d="M.96 27.643l2.515-2.688L22.14 44.432l-2.516 2.695L.96 27.643z"/><path d="M.96 27.643l2.515-2.688L22.14 44.432l-2.516 2.695L.96 27.643z"/></svg><svg viewBox="0 0 20 20" id="arrow-bottom" xmlns="http://www.w3.org/2000/svg"><path d="M5 8l5 5 5-5"/></svg><svg viewBox="0 0 24 24" id="arrow-left" xmlns="http://www.w3.org/2000/svg"><g clip-path="url(#ca)"><path d="M15.41 16.59L10.83 12l4.58-4.59L14 6l-6 6 6 6 1.41-1.41z"/></g><defs><clipPath id="ca"><path d="M0 0h24v24H0z"/></clipPath></defs></svg><svg viewBox="0 0 47 9" id="arrow-long" xmlns="http://www.w3.org/2000/svg"><path d="M46.057 4.854a.5.5 0 000-.708L42.877.964a.5.5 0 00-.708.708L44.997 4.5l-2.829 2.828a.5.5 0 00.708.708l3.181-3.182zM.704 5h45V4h-45v1z"/></svg><svg viewBox="0 0 13 11" id="arrow-right" xmlns="http://www.w3.org/2000/svg"><path d="M.622 5.925L.619 4.848l11.029.07.002 1.078-11.028-.07z"/><path d="M6.585.855L7.38.138l4.91 5.399-.797.718-4.908-5.4z"/><path d="M6.932 10.403l-.727-.8 5.374-4.846.727.8-5.374 4.846z"/></svg><svg viewBox="0 0 42 47" id="arrow-right-fill" xmlns="http://www.w3.org/2000/svg"><path d="M40.114 20.726c2.153 1.223 2.153 4.325 0 5.548L4.764 46.343C2.638 47.55 0 46.014 0 43.569V3.431C0 .986 2.638-.55 4.764.657l35.35 20.07z"/></svg><svg viewBox="0 0 10 9" id="check" xmlns="http://www.w3.org/2000/svg"><path fill-rule="evenodd" clip-rule="evenodd" d="M9.796 4.231L5.34 8.854a.467.467 0 01-.678 0L.204 4.23a.741.741 0 010-1.02.679.679 0 01.983 0L5 7.165l3.813-3.954a.68.68 0 01.983 0 .74.74 0 010 1.02z"/></svg><svg viewBox="0 0 18 18" id="other" xmlns="http://www.w3.org/2000/svg"><path d="M16 6.426V3.574C16 2.452 15.548 2 14.426 2h-2.852C10.452 2 10 2.452 10 3.574v2.852C10 7.548 10.452 8 11.574 8h2.852C15.548 8 16 7.548 16 6.426zm-8 .182V3.399C8 2.403 7.548 2 6.426 2H3.574C2.452 2 2 2.403 2 3.4v3.2C2 7.605 2.452 8 3.574 8h2.852C7.548 8.007 8 7.604 8 6.608zm0 7.818v-2.852C8 10.452 7.548 10 6.426 10H3.574C2.452 10 2 10.452 2 11.574v2.852C2 15.548 2.452 16 3.574 16h2.852C7.548 16 8 15.548 8 14.426zM11 13h5m-3 3v-5"/></svg><svg viewBox="0 0 18 18" id="phone" xmlns="http://www.w3.org/2000/svg"><g clip-path="url(#ia)"><path d="M13.865 17.72c-.168 0-.336-.019-.5-.055a16.955 16.955 0 01-8.31-4.375 16.355 16.355 0 01-4.5-8.125 2.29 2.29 0 01.675-2.14l2-1.925A1 1 0 014 .83a1 1 0 01.725.435l2.5 3.695a.8.8 0 01-.055.95l-1.255 1.5A9.47 9.47 0 008 10.355a9.63 9.63 0 003.035 2.045l1.555-1.235a.82.82 0 01.93-.06l3.775 2.44A1 1 0 0117.5 15.1l-1.95 1.93a2.37 2.37 0 01-1.685.69zM3.92 1.82l-2 1.925a1.27 1.27 0 00-.375 1.2 15.35 15.35 0 004.205 7.63 15.95 15.95 0 007.82 4.115 1.375 1.375 0 001.25-.37l1.95-1.93-3.645-2.355-1.67 1.33a.5.5 0 01-.46.085 10.03 10.03 0 01-3.68-2.375 9.745 9.745 0 01-2.435-3.6A.5.5 0 015 7l1.35-1.615L3.92 1.82z"/></g><defs><clipPath id="ia"><path d="M0 0h18v18H0z"/></clipPath></defs></svg><svg viewBox="0 0 24 24" id="plus" xmlns="http://www.w3.org/2000/svg"><path d="M12 0h1v24h-1z"/><path d="M24 12v1H0v-1z"/></svg><svg viewBox="0 0 18 18" id="scissors" xmlns="http://www.w3.org/2000/svg"><path d="M4.5 7a2.5 2.5 0 100-5 2.5 2.5 0 000 5zm0 9a2.5 2.5 0 100-5 2.5 2.5 0 000 5zM16 4L6 11m10 2L6 6"/></svg><svg viewBox="0 0 18 18" id="sea" xmlns="http://www.w3.org/2000/svg"><path d="M2 10l1.875-1.37c1.155-.84 2.595-.84 3.75 0 1.155.84 2.595.84 3.75 0 1.155-.84 2.595-.84 3.75 0L17 10M2 3l1.875 1.37c1.155.84 2.595.84 3.75 0 1.155-.84 2.595-.84 3.75 0 1.155.84 2.595.84 3.75 0L17 3M2 15l1.875-1.37c1.155-.84 2.595-.84 3.75 0 1.155.84 2.595.84 3.75 0 1.155-.84 2.595-.84 3.75 0L17 15"/></svg><svg viewBox="0 0 18 18" id="settings" xmlns="http://www.w3.org/2000/svg"><path d="M9.5 12a2.5 2.5 0 100-5 2.5 2.5 0 000 5z"/><path d="M2 9.653V8.347c0-.77.637-1.409 1.424-1.409 1.357 0 1.912-.949 1.23-2.113a1.4 1.4 0 01.524-1.921l1.297-.734a1.259 1.259 0 011.71.445l.082.14c.675 1.165 1.784 1.165 2.466 0l.083-.14a1.259 1.259 0 011.709-.445l1.297.734a1.4 1.4 0 01.524 1.92c-.682 1.165-.127 2.114 1.23 2.114.78 0 1.424.63 1.424 1.41v1.305a1.42 1.42 0 01-1.424 1.409c-1.357 0-1.912.949-1.23 2.113.39.675.158 1.535-.524 1.921l-1.297.734a1.258 1.258 0 01-1.71-.445l-.082-.14c-.675-1.165-1.784-1.165-2.466 0l-.083.14a1.259 1.259 0 01-1.709.445l-1.297-.734a1.4 1.4 0 01-.524-1.92c.682-1.165.127-2.114-1.23-2.114A1.42 1.42 0 012 9.652z"/></svg><svg viewBox="0 0 17 14" id="tg" xmlns="http://www.w3.org/2000/svg"><path fill-rule="evenodd" clip-rule="evenodd" d="M1.169 6.027c4.563-1.976 7.606-3.278 9.129-3.908C14.645.323 15.548.01 16.137 0c.13-.002.419.03.607.181.158.128.201.3.222.421.021.121.047.397.026.613-.235 2.46-1.255 8.428-1.773 11.183-.22 1.166-.652 1.557-1.07 1.595-.909.083-1.6-.597-2.48-1.17-1.377-.898-2.156-1.457-3.493-2.332-1.546-1.012-.544-1.569.337-2.478.23-.238 4.236-3.858 4.313-4.186.01-.041.02-.195-.072-.275-.092-.081-.227-.054-.324-.032-.139.032-2.34 1.477-6.603 4.337-.625.427-1.191.634-1.698.623-.559-.012-1.634-.314-2.433-.572-.98-.316-1.76-.484-1.692-1.022.035-.28.424-.566 1.165-.86z"/></svg><svg viewBox="0 0 24 24" id="user" xmlns="http://www.w3.org/2000/svg"><path d="M12 12a5 5 0 100-10 5 5 0 000 10zM20 22c0-3.87-3.81-7-8.5-7C6.81 15 3 18.13 3 22"/><path d="M20 22c0-3.87-3.81-7-8.5-7C6.81 15 3 18.13 3 22h17z"/></svg><svg viewBox="0 0 22 14" id="vk" xmlns="http://www.w3.org/2000/svg"><path d="M11.982 14C4.466 14 .18 8.745 0 0h3.765c.124 6.418 2.9 9.137 5.098 9.698V0h3.546v5.536C14.579 5.297 16.86 2.775 17.63 0h3.545c-.59 3.42-3.064 5.942-4.823 6.979C18.111 7.819 20.928 10.02 22 14h-3.903c-.838-2.663-2.926-4.723-5.688-5.003V14h-.427z"/></svg><svg viewBox="0 0 21 21" id="wa" xmlns="http://www.w3.org/2000/svg"><path fill-rule="evenodd" clip-rule="evenodd" d="M18.086 3.907a9.896 9.896 0 00-3.23-2.156A9.934 9.934 0 0011.043 1c-5.488 0-9.957 4.446-9.959 9.91a9.86 9.86 0 001.33 4.955L1 21l5.279-1.379a10 10 0 004.759 1.207h.004c5.488 0 9.956-4.446 9.958-9.91a9.816 9.816 0 00-2.914-7.011zm-7.044 15.248h-.003a8.29 8.29 0 01-4.213-1.149l-.302-.179-3.132.818.835-3.04-.197-.31a8.194 8.194 0 01-1.265-4.384c.002-4.542 3.715-8.237 8.28-8.237a8.257 8.257 0 015.852 2.415 8.158 8.158 0 012.422 5.828c-.003 4.542-3.716 8.238-8.277 8.238zm4.54-6.17c-.25-.125-1.472-.723-1.7-.806-.228-.083-.393-.124-.56.124-.166.247-.643.804-.788.97-.145.166-.29.186-.539.062-.248-.124-1.05-.385-2.001-1.229-.74-.657-1.24-1.467-1.384-1.715-.146-.249-.016-.382.11-.506.111-.11.248-.29.372-.434.124-.145.165-.247.249-.413.083-.165.042-.31-.022-.434-.062-.124-.56-1.343-.767-1.839-.2-.48-.406-.416-.56-.423-.158-.006-.316-.01-.475-.009a.92.92 0 00-.665.31c-.228.248-.87.846-.87 2.065 0 1.219.892 2.397 1.016 2.563.124.165 1.755 2.666 4.25 3.739.595.255 1.059.407 1.42.522.595.189 1.137.161 1.567.098.478-.07 1.472-.598 1.679-1.177.207-.578.207-1.074.145-1.178-.062-.103-.23-.166-.477-.29z"/></svg><svg viewBox="0 0 18 18" id="wires" xmlns="http://www.w3.org/2000/svg"><path d="M8 12c0-1.207 0-2.182 2.4-2.182h3.2c2.4 0 2.4-.727 2.4-2.182V6.182C16 4.727 16 4 13.6 4h-.8M9.608 2H6.392a8.169 8.169 0 000 5h3.216a8.168 8.168 0 000-5z"/><path d="M6 2h-.75C3.75 2 3 2.833 3 4.5S3.75 7 5.25 7H6c-.75-1.667-.75-3.333 0-5zm3.75 0H9c.75 1.667.75 3.333 0 5h.75C11.25 7 12 6.167 12 4.5S11.25 2 9.75 2zM7.125 17h.75C9 17 9 16.167 9 15.75v-2.5C9 12.833 9 12 7.875 12h-.75C6 12 6 12.833 6 13.25v2.5C6 16.167 6 17 7.125 17z"/></svg><svg viewBox="0 0 27 27" id="yt" xmlns="http://www.w3.org/2000/svg"><path d="M23.573 9.201a2.48 2.48 0 00-.678-1.117 2.663 2.663 0 00-1.171-.647C20.081 7.007 13.507 7 13.507 7s-6.572-.007-8.216.404c-.443.12-.846.346-1.17.657-.325.311-.56.697-.683 1.12C3.004 10.744 3 13.99 3 13.99s-.004 3.261.426 4.81c.241.856.95 1.533 1.85 1.763 1.66.43 8.215.437 8.215.437s6.574.007 8.217-.403a2.672 2.672 0 001.173-.646 2.49 2.49 0 00.681-1.115c.435-1.564.438-4.808.438-4.808s.02-3.262-.427-4.827zm-12.168 7.795l.005-5.994 5.463 3.002-5.468 2.992z"/></svg></svg>