<svg width="16" height="16" viewBox="0 0 16 16" fill="none" xmlns="http://www.w3.org/2000/svg">
<path d="M14.6654 10V6.00001C14.6654 2.66668 13.332 1.33334 9.9987 1.33334H5.9987C2.66536 1.33334 1.33203 2.66668 1.33203 6.00001V10C1.33203 13.3333 2.66536 14.6667 5.9987 14.6667H9.9987C13.332 14.6667 14.6654 13.3333 14.6654 10Z" stroke="#9C9D9E" stroke-width="1.04688" stroke-linecap="round" stroke-linejoin="round"/>
<path d="M1.67969 4.73999H14.3197" stroke="#9C9D9E" stroke-width="1.04688" stroke-linecap="round" stroke-linejoin="round"/>
<path d="M5.67969 1.40665V4.64665" stroke="#9C9D9E" stroke-width="1.04688" stroke-linecap="round" stroke-linejoin="round"/>
<path d="M10.3203 1.40665V4.34665" stroke="#9C9D9E" stroke-width="1.04688" stroke-linecap="round" stroke-linejoin="round"/>
<path d="M6.40625 9.47708V8.67708C6.40625 7.65041 7.13292 7.23041 8.01958 7.74375L8.71292 8.14375L9.40625 8.54375C10.2929 9.05708 10.2929 9.89708 9.40625 10.4104L8.71292 10.8104L8.01958 11.2104C7.13292 11.7237 6.40625 11.3037 6.40625 10.2771V9.47708V9.47708Z" stroke="#9C9D9E" stroke-width="1.04688" stroke-miterlimit="10" stroke-linecap="round" stroke-linejoin="round"/>
</svg>
