<svg width="218" height="48" viewBox="0 0 218 48" fill="none" xmlns="http://www.w3.org/2000/svg">
<path d="M33.175 48H15L17.8251 42H36L33.175 48Z" fill="black"/>
<path d="M67.4933 38.8153H67.8954C68.3883 38.8153 68.6352 38.6649 68.6352 38.3648C68.6352 38.0754 68.3883 37.9304 67.8954 37.9304H67.4933V38.8153ZM66.7534 37.3355H67.9276C68.9032 37.3355 69.3913 37.6567 69.3913 38.3004C69.3913 38.6865 69.1925 38.9495 68.7962 39.0884C68.9997 39.1636 69.139 39.2791 69.2141 39.4343C69.289 39.5902 69.3321 39.8392 69.3429 40.1827C69.3429 40.3433 69.3697 40.4937 69.4234 40.6326H68.6833C68.6406 40.5045 68.619 40.3541 68.619 40.1827C68.6085 39.85 68.555 39.6359 68.4583 39.539C68.3619 39.4428 68.1579 39.394 67.8469 39.394H67.4933V40.6326H66.7534V37.3355ZM69.7449 37.2386C69.2625 36.7561 68.6779 36.5149 67.9919 36.5149C67.3056 36.5149 66.7213 36.7561 66.2386 37.2386C65.7562 37.7211 65.515 38.3058 65.515 38.9922C65.515 39.6786 65.7562 40.2658 66.2386 40.7536C66.7213 41.2415 67.3056 41.4857 67.9919 41.4857C68.6779 41.4857 69.2625 41.2415 69.7449 40.7536C70.2277 40.2658 70.4689 39.6786 70.4689 38.9922C70.4689 38.3058 70.2277 37.7211 69.7449 37.2386ZM65.8768 36.877C66.4611 36.2924 67.1661 36 67.9919 36C68.8175 36 69.5252 36.2924 70.1149 36.877C70.7047 37.4613 70.9997 38.1662 70.9997 38.9922C71.0103 39.8181 70.7182 40.5256 70.1231 41.1158C69.5278 41.7053 68.8175 42 67.9919 42C67.1661 42 66.4611 41.7053 65.8768 41.1158C65.2921 40.5256 65 39.8181 65 38.9922C65 38.1662 65.2921 37.4613 65.8768 36.877Z" fill="black"/>
<path d="M179 27.5264L172.792 34.2715L178.691 41.4743V42H174.869L169.92 35.9634H167.314V42H164V27H167.314V32.8765H169.81L175.046 27H179V27.5264Z" fill="black"/>
<path d="M157.079 37.8308C158.009 37.0958 158.474 36.037 158.474 34.6543V34.3896C158.474 33.0076 158.001 31.941 157.056 31.1915C156.111 30.4412 154.763 30.0664 153.011 30.0664C151.244 30.0664 149.888 30.4412 148.944 31.1915C147.999 31.941 147.526 33.0076 147.526 34.3896V34.6543C147.526 36.037 147.999 37.0958 148.944 37.8308C149.888 38.5664 151.244 38.9336 153.011 38.9336C154.794 38.9336 156.149 38.5664 157.079 37.8308ZM148.264 41.0958C146.911 40.4926 145.863 39.6322 145.118 38.5149C144.372 37.3975 144 36.0956 144 34.6104V34.4119C144 32.9266 144.372 31.6254 145.118 30.5074C145.863 29.3901 146.915 28.5259 148.275 27.9157C149.635 27.3055 151.214 27 153.011 27C154.824 27 156.407 27.3055 157.759 27.9157C159.111 28.5259 160.156 29.3901 160.894 30.5074C161.631 31.6254 162 32.9266 162 34.4119V34.6104C162 36.0956 161.631 37.3975 160.894 38.5149C160.156 39.6322 159.111 40.4926 157.759 41.0958C156.407 41.699 154.824 42 153.011 42C151.198 42 149.616 41.699 148.264 41.0958Z" fill="black"/>
<path d="M137.455 38.8857L133.5 30.2621L129.545 38.8857H137.455ZM143 38.8857V45H139.686V41.9655H127.314V45H124V38.8857H126.099L131.666 27H135.334L140.923 38.8857H143Z" fill="black"/>
<path d="M118.079 37.8308C119.009 37.0958 119.474 36.037 119.474 34.6543V34.3896C119.474 33.0076 119.001 31.941 118.056 31.1915C117.111 30.4412 115.763 30.0664 114.011 30.0664C112.244 30.0664 110.888 30.4412 109.944 31.1915C108.999 31.941 108.526 33.0076 108.526 34.3896V34.6543C108.526 36.037 108.999 37.0958 109.944 37.8308C110.888 38.5664 112.244 38.9336 114.011 38.9336C115.794 38.9336 117.149 38.5664 118.079 37.8308ZM109.264 41.0958C107.911 40.4926 106.863 39.6322 106.118 38.5149C105.372 37.3975 105 36.0956 105 34.6104V34.4119C105 32.9266 105.372 31.6254 106.118 30.5074C106.863 29.3901 107.915 28.5259 109.275 27.9157C110.635 27.3055 112.214 27 114.011 27C115.824 27 117.407 27.3055 118.759 27.9157C120.111 28.5259 121.156 29.3901 121.894 30.5074C122.631 31.6254 123 32.9266 123 34.4119V34.6104C123 36.0956 122.631 37.3975 121.894 38.5149C121.156 39.6322 120.111 40.4926 118.759 41.0958C117.407 41.699 115.824 42 114.011 42C112.198 42 110.616 41.699 109.264 41.0958Z" fill="black"/>
<path d="M105 41.4743V42H101.5L96.4999 30.3613L91.4999 42H88V41.4743L94.5227 27H98.477L105 41.4743Z" fill="black"/>
<path d="M211.932 14.9178L209.5 9.33837L207.068 14.9178H211.932ZM218 20.4743V21H214.591L213.227 17.89H205.772L204.409 21H201V20.4743L207.614 6H211.386L218 20.4743Z" fill="black"/>
<path d="M199 6.52643L192.792 13.2716L198.691 20.4743V21H194.869L189.921 14.9635H187.314V21H184V6H187.314V11.8765H189.81L195.046 6H199V6.52643Z" fill="black"/>
<path d="M169.371 6V16.2897L177.606 6H181V21H177.629V10.7101L169.394 21H166V6H169.371Z" fill="black"/>
<path d="M158.968 12.3454C159.359 12.0479 159.554 11.6099 159.554 11.0308V10.7789C159.554 10.2155 159.359 9.7841 158.968 9.48738C158.578 9.18988 158.015 9.04135 157.279 9.04135H151.378V12.7912H157.279C158.015 12.7912 158.578 12.6429 158.968 12.3454ZM157.369 6C159.111 6 160.485 6.42733 161.491 7.28087C162.496 8.13441 163 9.3007 163 10.7789V11.0308C163 12.5248 162.496 13.6983 161.491 14.5517C160.485 15.4059 159.111 15.8327 157.369 15.8327H151.378V21H148V6H157.369Z" fill="black"/>
<path d="M141.912 17.6043C142.316 17.3379 142.519 16.9679 142.519 16.4956V16.2443C142.519 15.7713 142.316 15.4059 141.912 15.1468C141.507 14.8874 140.939 14.7574 140.206 14.7574H134.435V18.0048H140.206C140.939 18.0048 141.507 17.8714 141.912 17.6043ZM144.832 6V8.99524H134.435V11.8994H140.275C142.122 11.8994 143.538 12.2767 144.523 13.0313C145.508 13.7859 146 14.8801 146 16.3128V16.5872C146 18.0047 145.504 19.0944 144.511 19.8569C143.519 20.6193 142.107 21 140.275 21H131V6H144.832Z" fill="black"/>
<path d="M122.932 14.9178L120.5 9.33837L118.068 14.9178H122.932ZM129 20.4743V21H125.591L124.227 17.89H116.772L115.409 21H112V20.4743L118.613 6H122.386L129 20.4743Z" fill="black"/>
<path d="M108.516 13.4119C108.516 12.3677 108.197 11.5996 107.559 11.1064C106.922 10.614 105.912 10.3677 104.531 10.3677H102.162V16.6107H104.531C105.912 16.6107 106.922 16.3752 107.559 15.9043C108.197 15.4341 108.516 14.6768 108.516 13.6327V13.4119ZM93.4181 15.9043C94.0401 16.3752 95.0499 16.6107 96.4468 16.6107H98.8606V10.3677H96.4468C95.0649 10.3677 94.0592 10.614 93.4292 11.1064C92.7993 11.5996 92.4843 12.3677 92.4843 13.4119V13.6327C92.4843 14.6768 92.7954 15.4341 93.4181 15.9043ZM110.03 9.05556C111.343 10.1069 112 11.5735 112 13.4557V13.5881C112 15.4564 111.347 16.9078 110.042 17.945C108.736 18.9816 106.899 19.5003 104.531 19.5003H102.231V21H98.7921V19.5003H96.4468C94.0934 19.5003 92.2639 18.9816 90.9587 17.945C89.6526 16.9078 89 15.4564 89 13.5881V13.4557C89 11.5735 89.6526 10.1069 90.9587 9.05556C92.2639 8.00377 94.0934 7.47821 96.4468 7.47821H98.7921V6H102.231V7.47821H104.531C106.884 7.47821 108.717 8.00377 110.03 9.05556Z" fill="black"/>
<path d="M54.1102 42H36L52.8898 6H71L54.1102 42Z" fill="black"/>
<path d="M18.1102 42H0L16.8898 6H35L18.1102 42Z" fill="black"/>
<path d="M53.175 6H35L37.8251 0H56L53.175 6Z" fill="black"/>
</svg>
