<svg width="48" height="48" viewBox="0 0 48 48" fill="none" xmlns="http://www.w3.org/2000/svg">
<path d="M24 23.302C24.9667 23.302 25.7917 22.9638 26.475 22.2874C27.1583 21.611 27.5 20.7944 27.5 19.8376C27.5 18.8807 27.1583 18.0641 26.475 17.3877C25.7917 16.7113 24.9667 16.3731 24 16.3731C23.0333 16.3731 22.2083 16.7113 21.525 17.3877C20.8417 18.0641 20.5 18.8807 20.5 19.8376C20.5 20.7944 20.8417 21.611 21.525 22.2874C22.2083 22.9638 23.0333 23.302 24 23.302ZM24.05 43C23.8167 43 23.6 42.967 23.4 42.901C23.2 42.835 23.0167 42.736 22.85 42.6041C17.8833 38.2817 14.1667 34.2728 11.7 30.5774C9.23333 26.882 8 23.434 8 20.2335C8 15.2843 9.60833 11.3414 12.825 8.40482C16.0417 5.46827 19.7667 4 24 4C28.2333 4 31.9583 5.46827 35.175 8.40482C38.3917 11.3414 40 15.2843 40 20.2335C40 23.434 38.7667 26.882 36.3 30.5774C33.8333 34.2728 30.1167 38.2817 25.15 42.6041C24.9833 42.736 24.8083 42.835 24.625 42.901C24.4417 42.967 24.25 43 24.05 43Z" fill="#E6332A"/>
</svg>
