<svg width="22" height="22" viewBox="0 0 22 22" fill="none" xmlns="http://www.w3.org/2000/svg">
<path fill-rule="evenodd" clip-rule="evenodd" d="M-4.97797e-07 11C-1.82612e-06 17.0751 4.92486 22 11 22C17.0751 22 22 17.0751 22 11C22 4.92487 17.0751 -1.07591e-06 11 -2.40311e-06C4.92487 -3.73031e-06 8.30528e-07 4.92486 -4.97797e-07 11Z" fill="white"/>
<path fill-rule="evenodd" clip-rule="evenodd" d="M5.49997 11C5.49997 14.0376 7.9624 16.5 11 16.5C14.0375 16.5 16.5 14.0376 16.5 11C16.5 7.96243 14.0375 5.5 11 5.5C7.9624 5.5 5.49997 7.96243 5.49997 11Z" fill="#DEDEDE"/>
</svg>
