<svg width="18" height="18" viewBox="0 0 18 18" fill="none" xmlns="http://www.w3.org/2000/svg">
<path d="M4.5 7C5.88071 7 7 5.88071 7 4.5C7 3.11929 5.88071 2 4.5 2C3.11929 2 2 3.11929 2 4.5C2 5.88071 3.11929 7 4.5 7Z" stroke="#292D32" stroke-width="1.14009" stroke-linecap="round" stroke-linejoin="round"/>
<path d="M4.5 16C5.88071 16 7 14.8807 7 13.5C7 12.1193 5.88071 11 4.5 11C3.11929 11 2 12.1193 2 13.5C2 14.8807 3.11929 16 4.5 16Z" stroke="#292D32" stroke-width="1.14009" stroke-linecap="round" stroke-linejoin="round"/>
<path d="M16 4L6 11" stroke="#292D32" stroke-width="1.14009" stroke-linecap="round" stroke-linejoin="round"/>
<path d="M16 13L6 6" stroke="#292D32" stroke-width="1.14009" stroke-linecap="round" stroke-linejoin="round"/>
</svg>
