<svg width="18" height="18" viewBox="0 0 18 18" fill="none" xmlns="http://www.w3.org/2000/svg">
<path d="M2 10L3.875 8.63014C5.03 7.78995 6.47 7.78995 7.625 8.63014C8.78 9.47032 10.22 9.47032 11.375 8.63014C12.53 7.78995 13.97 7.78995 15.125 8.63014L17 10" stroke="#292D32" stroke-width="1.18176" stroke-miterlimit="10" stroke-linecap="round" stroke-linejoin="round"/>
<path d="M2 3L3.875 4.36986C5.03 5.21005 6.47 5.21005 7.625 4.36986C8.78 3.52968 10.22 3.52968 11.375 4.36986C12.53 5.21005 13.97 5.21005 15.125 4.36986L17 3" stroke="#292D32" stroke-width="1.18176" stroke-miterlimit="10" stroke-linecap="round" stroke-linejoin="round"/>
<path d="M2 15L3.875 13.6301C5.03 12.79 6.47 12.79 7.625 13.6301C8.78 14.4703 10.22 14.4703 11.375 13.6301C12.53 12.79 13.97 12.79 15.125 13.6301L17 15" stroke="#292D32" stroke-width="1.18176" stroke-miterlimit="10" stroke-linecap="round" stroke-linejoin="round"/>
</svg>
