<svg width="18" height="18" viewBox="0 0 18 18" fill="none" xmlns="http://www.w3.org/2000/svg">
<path d="M9.5 12C10.8807 12 12 10.8807 12 9.5C12 8.11929 10.8807 7 9.5 7C8.11929 7 7 8.11929 7 9.5C7 10.8807 8.11929 12 9.5 12Z" stroke="#292D32" stroke-width="1.125" stroke-miterlimit="10" stroke-linecap="round" stroke-linejoin="round"/>
<path d="M2 9.65262V8.34738C2 7.57611 2.63718 6.93832 3.42429 6.93832C4.78111 6.93832 5.33583 5.98906 4.65367 4.82473C4.26387 4.15728 4.49625 3.28959 5.17841 2.90395L6.47526 2.16976C7.06747 1.8212 7.83208 2.02885 8.18441 2.61472L8.26687 2.75563C8.94153 3.91996 10.051 3.91996 10.7331 2.75563L10.8156 2.61472C11.1679 2.02885 11.9325 1.8212 12.5247 2.16976L13.8216 2.90395C14.5037 3.28959 14.7361 4.15728 14.3463 4.82473C13.6642 5.98906 14.2189 6.93832 15.5757 6.93832C16.3553 6.93832 17 7.56869 17 8.34738V9.65262C17 10.4239 16.3628 11.0617 15.5757 11.0617C14.2189 11.0617 13.6642 12.0109 14.3463 13.1753C14.7361 13.8501 14.5037 14.7104 13.8216 15.096L12.5247 15.8302C11.9325 16.1788 11.1679 15.9712 10.8156 15.3853L10.7331 15.2444C10.0585 14.08 8.94903 14.08 8.26687 15.2444L8.18441 15.3853C7.83208 15.9712 7.06747 16.1788 6.47526 15.8302L5.17841 15.096C4.49625 14.7104 4.26387 13.8427 4.65367 13.1753C5.33583 12.0109 4.78111 11.0617 3.42429 11.0617C2.63718 11.0617 2 10.4239 2 9.65262Z" stroke="#292D32" stroke-width="1.125" stroke-miterlimit="10" stroke-linecap="round" stroke-linejoin="round"/>
</svg>
