<svg width="17" height="14" viewBox="0 0 17 14" fill="none" xmlns="http://www.w3.org/2000/svg">
<path fill-rule="evenodd" clip-rule="evenodd" d="M1.16866 6.02691C5.73206 4.05119 8.77503 2.74867 10.2976 2.11936C14.6448 0.322542 15.5481 0.0104165 16.1369 0.00010989C16.2664 -0.00215693 16.5559 0.0297346 16.7435 0.180965C16.9018 0.30866 16.9454 0.481158 16.9663 0.602227C16.9871 0.723297 17.0131 0.999096 16.9924 1.2146C16.7569 3.6743 15.7375 9.64335 15.2189 12.3983C14.9995 13.564 14.5674 13.9548 14.1492 13.9931C13.2401 14.0762 12.5498 13.3961 11.6694 12.8225C10.2916 11.9251 9.5133 11.3664 8.17597 10.4907C6.63045 9.47859 7.63235 8.92233 8.51313 8.01324C8.74364 7.77533 12.7489 4.15509 12.8264 3.82668C12.8361 3.7856 12.8451 3.6325 12.7536 3.55166C12.6621 3.47081 12.527 3.49846 12.4295 3.52045C12.2913 3.55161 10.0904 4.99723 5.82663 7.8573C5.2019 8.2836 4.63604 8.49131 4.12904 8.48042C3.57012 8.46842 2.49499 8.16638 1.69573 7.90821C0.715411 7.59154 -0.063727 7.42412 0.00411841 6.88633C0.0394565 6.60621 0.427638 6.31974 1.16866 6.02691Z" fill="#E6332A"/>
</svg>
