<svg width="21" height="21" viewBox="0 0 21 21" fill="none" xmlns="http://www.w3.org/2000/svg">
<path fill-rule="evenodd" clip-rule="evenodd" d="M18.0859 3.90685C17.1634 2.98268 16.0658 2.24988 14.8567 1.75091C13.6476 1.25194 12.3511 0.996721 11.0421 1.00003C5.55351 1.00003 1.08541 5.44582 1.08319 10.9106C1.08319 12.6571 1.54132 14.3617 2.41209 15.8653L1 21L6.27897 19.6211C7.73919 20.4122 9.37513 20.8271 11.0377 20.8278H11.0421C16.5296 20.8278 20.9977 16.382 21 10.9172C21.0037 9.61504 20.7481 8.32503 20.248 7.12175C19.7478 5.91847 19.013 4.82578 18.0859 3.90685ZM11.0421 19.1552H11.0388C9.5563 19.1554 8.10108 18.7584 6.82583 18.006L6.52412 17.8271L3.39156 18.6452L4.22684 15.6059L4.0305 15.2946C3.20165 13.9813 2.76287 12.4615 2.76483 10.9106C2.76705 6.36876 6.47974 2.67369 11.0455 2.67369C12.1328 2.67128 13.2098 2.88354 14.2142 3.29816C15.2186 3.71279 16.1304 4.32156 16.8968 5.08923C17.6673 5.85324 18.278 6.76166 18.6937 7.762C19.1093 8.76233 19.3216 9.83473 19.3183 10.9172C19.3161 15.4591 15.6034 19.1552 11.0421 19.1552ZM15.5823 12.985C15.3327 12.8602 14.1103 12.2619 13.8818 12.1791C13.6544 12.0963 13.4892 12.0554 13.3228 12.3027C13.1564 12.55 12.6794 13.1075 12.5341 13.2731C12.3888 13.4387 12.2435 13.4586 11.995 13.335C11.7465 13.2113 10.9445 12.9497 9.99388 12.1062C9.254 11.4493 8.75484 10.639 8.60952 10.3906C8.46421 10.1422 8.59399 10.0086 8.71934 9.88498C8.83138 9.77458 8.96782 9.59574 9.09205 9.45111C9.21629 9.30649 9.25733 9.20382 9.34053 9.03822C9.42372 8.87262 9.38268 8.72799 9.31945 8.60435C9.25733 8.4796 8.75927 7.26079 8.55184 6.76509C8.35107 6.28485 8.14585 6.34889 7.99277 6.34226C7.83424 6.33581 7.67557 6.33286 7.5169 6.33343C7.39073 6.33663 7.26658 6.36574 7.15225 6.41893C7.03791 6.47213 6.93584 6.54826 6.85246 6.64255C6.62395 6.89095 5.98169 7.48931 5.98169 8.70812C5.98169 9.92693 6.87353 11.1049 6.99777 11.2705C7.12201 11.4361 8.75262 13.9366 11.2485 15.0097C11.843 15.2647 12.3067 15.4171 12.6672 15.5319C13.2629 15.7207 13.8053 15.6931 14.2346 15.6302C14.7127 15.5595 15.7066 15.0318 15.914 14.4533C16.1214 13.8748 16.1214 13.3791 16.0593 13.2754C15.9972 13.1716 15.8297 13.1086 15.5823 12.985Z" fill="#E6332A"/>
</svg>
