<svg width="27" height="27" viewBox="0 0 27 27" fill="none" xmlns="http://www.w3.org/2000/svg">
<path d="M23.5728 9.20112C23.4533 8.77888 23.2197 8.39382 22.8954 8.08424C22.571 7.77467 22.1671 7.55139 21.724 7.43663C20.0809 7.007 13.5073 7.00001 13.5073 7.00001C13.5073 7.00001 6.93472 6.99301 5.29053 7.40366C4.84767 7.5237 4.44464 7.75014 4.12015 8.06123C3.79566 8.37232 3.5606 8.75762 3.43754 9.18014C3.0042 10.7448 3 13.99 3 13.99C3 13.99 2.9958 17.2512 3.426 18.7999C3.66733 19.6561 4.37558 20.3326 5.27584 20.5634C6.93577 20.993 13.4915 21 13.4915 21C13.4915 21 20.0651 21.007 21.7083 20.5973C22.1516 20.4828 22.5558 20.26 22.881 19.9511C23.2061 19.6421 23.441 19.2577 23.5623 18.8359C23.9967 17.2722 23.9998 14.028 23.9998 14.028C23.9998 14.028 24.0208 10.7658 23.5728 9.20112V9.20112ZM11.4046 16.9964L11.4098 11.0016L16.8733 14.004L11.4046 16.9964V16.9964Z" fill="#E6332A"/>
</svg>
